<?xml version="1.0" encoding="utf-8"?>
<!-- Generator: Adobe Illustrator 19.1.0, SVG Export Plug-In . SVG Version: 6.00 Build 0)  -->
<svg version="1.1" xmlns="http://www.w3.org/2000/svg" xmlns:xlink="http://www.w3.org/1999/xlink" x="0px" y="0px"
	 viewBox="0 0 500 419" style="enable-background:new 0 0 500 419;" xml:space="preserve">
<style type="text/css">
	.st0{display:none;}
	.st1{fill:none;stroke:#000000;stroke-width:1.25;stroke-linecap:round;stroke-miterlimit:10;}
	.st2{fill:none;stroke:#000000;stroke-width:1.25;stroke-linecap:round;stroke-linejoin:round;stroke-miterlimit:10;}
	.st3{fill:none;stroke:#000000;stroke-width:2.3316;stroke-linecap:round;stroke-miterlimit:10;}
	.st4{fill:none;stroke:#000000;stroke-width:2.3316;stroke-linecap:round;stroke-linejoin:round;stroke-miterlimit:10;}
	.st5{fill:none;stroke:#000000;stroke-width:1.6753;stroke-linecap:round;stroke-miterlimit:10;}
	.st6{fill:none;stroke:#000000;stroke-width:2;stroke-linecap:round;stroke-miterlimit:10;}
	.st7{fill:none;stroke:#000000;stroke-width:2.332;stroke-linecap:round;stroke-linejoin:round;stroke-miterlimit:10;}
	.st8{fill:none;stroke:#000000;stroke-width:2.332;stroke-linecap:round;stroke-miterlimit:10;}
	.st9{display:inline;}
	.st10{display:inline;fill:none;stroke:#000000;stroke-width:1.25;stroke-linecap:round;stroke-miterlimit:10;}
	.st11{fill:none;stroke:#000000;stroke-miterlimit:10;}
	.st12{fill:none;stroke:#000000;stroke-width:1.498;stroke-linecap:round;stroke-miterlimit:10;}
	.st13{fill:none;stroke:#000000;stroke-width:1.1984;stroke-miterlimit:10;}
	.st14{fill:none;stroke:#000000;stroke-width:1.6401;stroke-linecap:round;stroke-miterlimit:10;}
	.st15{fill:none;stroke:#000000;stroke-width:1.3121;stroke-miterlimit:10;}
	.st16{fill:none;stroke:#000000;stroke-width:2;stroke-miterlimit:10;}
	.st17{fill:none;stroke:#000000;stroke-width:1.0956;stroke-linecap:round;stroke-miterlimit:10;}
	.st18{fill:none;stroke:#000000;stroke-width:1.25;stroke-miterlimit:10;}
	.st19{fill:none;stroke:#000000;stroke-width:1.6753;stroke-miterlimit:10;}
	.st20{display:none;fill:none;stroke:#000000;stroke-width:1.25;stroke-linecap:round;stroke-linejoin:round;stroke-miterlimit:10;}
</style>
<g id="image" class="st0">
</g>
<g id="names">
</g>
<g id="std">
	<g>
		<path d="M143,342.7L143,342.7c0.5-0.7,1-1.2,1.9-1.2c0.5,0,0.9,0.2,1.3,0.4l-0.7,1.3c-0.3-0.2-0.5-0.4-0.9-0.4
			c-1.6,0-1.7,2-1.7,3.1v4.2h-1.4v-8.5h1.4V342.7z"/>
		<path d="M150.5,346.1c0-2.5,2-4.5,4.4-4.5s4.4,2,4.4,4.5s-2,4.4-4.4,4.4S150.5,348.6,150.5,346.1z M151.9,346.1
			c0,1.7,1.2,3.1,3,3.1s3-1.4,3-3.1c0-1.7-1.2-3.1-3-3.1S151.9,344.4,151.9,346.1z"/>
		<path d="M168.4,343.8c-0.2-0.5-0.6-0.9-1.2-0.9c-0.5,0-1,0.4-1,0.9c0,0.8,1,1.1,2,1.5s2,1,2,2.4c0,1.6-1.3,2.8-2.9,2.8
			c-1.4,0-2.5-0.8-3-2.1l1.3-0.5c0.4,0.8,0.8,1.4,1.7,1.4c0.8,0,1.4-0.5,1.4-1.3c0-1.9-3.8-1.2-3.8-3.9c0-1.4,1.2-2.4,2.5-2.4
			c1,0,1.9,0.7,2.3,1.6L168.4,343.8z"/>
		<path d="M176.5,346.4c0,1.6,1.1,2.8,2.8,2.8c1.2,0,2-0.7,2.6-1.7l1.2,0.7c-0.8,1.5-2.2,2.4-3.9,2.4c-2.5,0-4.1-1.9-4.1-4.4
			c0-2.5,1.5-4.6,4.1-4.6c2.7,0,4.2,2.3,4,4.8H176.5z M181.6,345.1c-0.2-1.2-1.2-2.2-2.5-2.2c-1.2,0-2.4,1-2.6,2.2H181.6z"/>
		<path d="M191.5,347.5l2.5-5.7h1.6l-4.1,9l-4.2-9h1.6L191.5,347.5z"/>
		<path d="M202.6,338.6c0,0.6-0.5,1-1,1c-0.6,0-1-0.5-1-1c0-0.6,0.5-1,1-1C202.2,337.6,202.6,338.1,202.6,338.6z M202.3,350.3h-1.4
			v-8.5h1.4V350.3z"/>
		<path d="M210.3,350.3h-1.4v-14.9h1.4V350.3z"/>
		<path d="M218,350.3h-1.4v-14.9h1.4V350.3z"/>
		<path d="M225,346.4c0,1.6,1.1,2.8,2.8,2.8c1.2,0,2-0.7,2.6-1.7l1.2,0.7c-0.8,1.5-2.2,2.4-3.9,2.4c-2.5,0-4.1-1.9-4.1-4.4
			c0-2.5,1.5-4.6,4.1-4.6c2.7,0,4.2,2.3,4,4.8H225z M230.2,345.1c-0.2-1.2-1.2-2.2-2.5-2.2c-1.2,0-2.4,1-2.6,2.2H230.2z"/>
		<path d="M239.9,348.8l-2,4.6l-1-0.4l1.7-4.7L239.9,348.8z"/>
		<path d="M261.8,344.4L261.8,344.4c-0.7-0.8-1.5-1.4-2.7-1.4c-1.7,0-3,1.4-3,3.1c0,1.7,1.2,3.1,2.9,3.1c1.2,0,2.1-0.5,2.8-1.5h0
			v1.9c-0.8,0.6-1.7,0.9-2.7,0.9c-2.6,0-4.5-1.9-4.5-4.5c0-2.5,2-4.5,4.5-4.5c0.9,0,1.9,0.3,2.6,0.8V344.4z"/>
		<path d="M275.4,350.3H274v-1.2h0c-0.7,0.9-1.7,1.4-2.9,1.4c-2.5,0-4.1-2.1-4.1-4.4c0-2.4,1.5-4.5,4.1-4.5c1.2,0,2.2,0.5,2.9,1.4h0
			v-1.2h1.4V350.3z M268.5,346c0,1.7,1,3.2,2.8,3.2c1.9,0,2.8-1.5,2.8-3.2c0-1.7-1.1-3.1-2.8-3.1C269.6,342.9,268.5,344.4,268.5,346
			z"/>
		<path d="M283.1,350.3h-1.4v-14.9h1.4V350.3z"/>
		<path d="M291.4,338.6c0,0.6-0.5,1-1,1c-0.6,0-1-0.5-1-1c0-0.6,0.5-1,1-1C290.9,337.6,291.4,338.1,291.4,338.6z M291.1,350.3h-1.4
			v-8.5h1.4V350.3z"/>
		<path d="M299.3,350.3h-1.4v-7.1H297v-1.3h0.8v-3.4c0-0.7,0-1.6,0.4-2.2c0.5-0.8,1.3-1.1,2.2-1.1c0.3,0,0.7,0.1,1,0.2v1.5
			c-0.3-0.1-0.6-0.2-1-0.2c-1.2,0-1.2,0.8-1.2,2.3v2.9h2.1v1.3h-2.1V350.3z"/>
		<path d="M305.5,346.1c0-2.5,2-4.5,4.4-4.5s4.4,2,4.4,4.5s-2,4.4-4.4,4.4S305.5,348.6,305.5,346.1z M306.9,346.1
			c0,1.7,1.2,3.1,3,3.1s3-1.4,3-3.1c0-1.7-1.2-3.1-3-3.1S306.9,344.4,306.9,346.1z"/>
		<path d="M321.3,342.7L321.3,342.7c0.5-0.7,1-1.2,1.9-1.2c0.5,0,0.9,0.2,1.3,0.4l-0.7,1.3c-0.3-0.2-0.5-0.4-0.9-0.4
			c-1.6,0-1.7,2-1.7,3.1v4.2h-1.4v-8.5h1.4V342.7z"/>
		<path d="M331.2,342.9L331.2,342.9c0.6-0.8,1.4-1.3,2.4-1.3c2.3,0,2.9,1.7,2.9,3.7v5h-1.4v-4.8c0-1.4-0.1-2.6-1.8-2.6
			c-2,0-2.1,1.8-2.1,3.3v4h-1.4v-8.5h1.4V342.9z"/>
		<path d="M344.8,338.6c0,0.6-0.5,1-1,1c-0.6,0-1-0.5-1-1c0-0.6,0.5-1,1-1C344.4,337.6,344.8,338.1,344.8,338.6z M344.5,350.3h-1.4
			v-8.5h1.4V350.3z"/>
		<path d="M358.9,350.3h-1.4v-1.2h0c-0.7,0.9-1.7,1.4-2.9,1.4c-2.5,0-4.1-2.1-4.1-4.4c0-2.4,1.5-4.5,4.1-4.5c1.2,0,2.2,0.5,2.9,1.4
			h0v-1.2h1.4V350.3z M351.9,346c0,1.7,1,3.2,2.8,3.2c1.9,0,2.8-1.5,2.8-3.2c0-1.7-1.1-3.1-2.8-3.1C353,342.9,351.9,344.4,351.9,346
			z"/>
	</g>
</g>
<g id="test_numbers" class="st0">
</g>
<g id="skew" class="st0">
</g>
<g id="number_formatting">
	<g>
		<g id="_x38__3_">
			<path class="st12" d="M249.9,195.3c-7.3-4.8-12.4-9.9-12.9-16.5c-0.4-5.8,2.6-15.1,12.9-15.1"/>
			<path class="st12" d="M249.9,195.3c7.3-4.8,12.4-9.9,12.9-16.5c0.4-5.8-2.6-15.1-12.9-15.1"/>
			<path class="st12" d="M249.9,195.3c-7.3,4.8-12.4,9.9-12.9,16.5c-0.4,5.8,2.6,15.1,12.9,15.1"/>
			<path class="st12" d="M249.9,195.3c7.3,4.8,12.4,9.9,12.9,16.5c0.4,5.8-2.6,15.1-12.9,15.1"/>
		</g>
		<line id="_x31__5_" class="st12" x1="220.2" y1="163.7" x2="220.2" y2="226.9"/>
		<line id="_x31__4_" class="st12" x1="294.1" y1="163.7" x2="294.1" y2="226.9"/>
		<g id="_x39__2_">
			<path class="st12" d="M177.6,163.8c-10.2,0-12.9,9.1-12.9,14.8c0,6.9,2.4,17.4,12.9,17.4c7,0,12.3-5.8,12.9-15.5
				C190.9,172.6,187.8,163.8,177.6,163.8"/>
			<path class="st12" d="M168.8,223.6c1.8,2.2,5.3,3.7,8.8,2.7c9.1-2.8,12.9-15.7,12.9-47.1"/>
		</g>
		<g id="_x36__2_">
			<path class="st12" d="M322.9,226.7c10.2,0,12.9-9.1,12.9-14.8c0-6.9-2.4-17.4-12.9-17.4c-7,0-12.3,5.8-12.9,15.5
				C309.5,217.9,312.6,226.7,322.9,226.7"/>
			<path class="st12" d="M331.6,166.9c-1.8-2.2-5.3-3.7-8.8-2.7c-9.1,2.8-12.9,15.7-12.9,47.1"/>
		</g>
		<circle class="st13" cx="202.3" cy="226.6" r="1.1"/>
		<circle class="st13" cx="277.8" cy="226.6" r="1.1"/>
	</g>
</g>
<g id="heart">
</g>
<g id="AE">
	<g>
		<g>
			<path class="st6" d="M75,139.9c0,0,15.3,22.7,59.5-3c34.9-20.3,47.3-53.5,73.2-81.1c20.6-21.9,32.8-32.4,46.1-33.5"/>
			<path class="st6" d="M249.4,23.1c-5.4,3.5-15.9,14.7-29.7,38s-24.6,41.1-19.2,46.5c7.6,7.6,23.5-11.6,23.5-11.6"/>
			<line class="st6" x1="198.4" y1="68.1" x2="215.2" y2="68.1"/>
		</g>
		<g>
			<path class="st6" d="M286.7,64.8c0,0,1.9-5.4,15.4-9.6c13.6-4.2,14.5-0.2,26.9-5.6c12.4-5.4,16.1-10.1,15.2-14.7
				s-11.2-4-23.8,5.6c-12.6,9.6-18.5,24.1-17.1,28.3"/>
			<path class="st6" d="M311.9,64.7c0,0-46.8,22.2-51.3,49c-4,23.8,38.6-3.3,59.7-17.5c24.4-16.5,52.6-30,74.9-13.4"/>
		</g>
		<path class="st6" d="M255.5,48.4c1.5-2.2,11-2.3,15.9,3.3s3.2,22.7-9.5,26.5c-12.7,3.9-10.5-18.1-5.8-23c2.8-2.9,5.3-2.3,6.2-0.6
			c0.8,1.5-0.8,6.8-4.5,7.9c-2.8,0.8-7,0.1-13.8,3.1c-7.6,3.3-8.4,8.8-7.2,12.5c1.3,4,7.7,6,14.8,3.4s9.1-7.2,10.3-9.6
			c1.2-2.4,0.8-4.5-1.3-4.9s-4,1.9-4,1.9"/>
	</g>
	<g>
		<path class="st18" d="M275.4,289.7c0,1.9,1.3,3.6,1.3,3.6"/>
		<g>
			<path class="st18" d="M306.9,299.6c0.1,0.3,5.5,4.1,10.3,5.2c1.5,0.4,1.8,0.4,1.4-1.3c-0.5-2-4.2-8.3-8.7-10.7
				c-4.3-2.4-11.2-5.1-29.5-9.6"/>
			<path class="st18" d="M280.9,303.3c2.3,2.7,6,5.9,10.1,7.5c0.4,0.1,0.7-0.2,0.7-0.6c-0.9-3.8-4.7-20.3-10-26.8
				c0,0,13.4-5.5,20.4-12.6c0.3-0.3,0.1-0.7-0.3-0.7c-3.8,0-17.7,0.3-23.5,4.3"/>
			<path class="st18" d="M288,297c3.5,4.2,9.6,8.5,11.5,9.8c0.2,0.1,0.5-0.1,0.4-0.3c-1.1-3.6-6.5-19.9-10.5-21.6
				c0,0,16.5-3.7,22.7-7.8c0.2-0.1,0.1-0.4-0.1-0.5c-1.9-0.6-8.8-2.8-15.1-1.6"/>
			<path class="st18" d="M297.9,300.5c4.4,4.9,9.2,8,10.6,8.9c0.2,0.1,0.4,0,0.4-0.2c-0.1-2.3-0.8-12.3-8.9-20.7
				c0,0,13.3-0.8,20-3.7c0.2-0.1,0.2-0.4,0-0.5c-1.7-0.9-8-4-13.6-4.4"/>
		</g>
		<path class="st18" d="M219.3,284.3c-7.5,1.1-16.3,4.3-25.2,8.4c-0.4,0.2-0.9,0.3-1.4,0.2c-2.3-0.3-10.1-0.6-18.9,8.9
			c-0.2,0.2-0.1,0.6,0.1,0.7c2.1,0.9,10.9,1.5,18.4-6.4"/>
		<path class="st18" d="M223.1,282.8c0,0-8-2.1-14.5-14.3c-0.2-0.3,0-0.7,0.3-0.7c3.8,0.2,14.3,0.5,20.8,7.3"/>
		<path class="st18" d="M224.5,298.3c-1.6,3.8-5.5,7.4-10.4,10.3c-0.3,0.2-0.6-0.2-0.6-0.6c0.2-3.2-0.7-9.7,3.2-17.2"/>
		<path class="st18" d="M213.7,300.4c-1.7,4.7-6.2,6.1-7.8,6.4c-0.2,0-0.4-0.1-0.4-0.3c-0.4-6.6,3.1-21.3,12.3-21.7
			c0,0-14.7-0.1-20.6-11.1c-0.1-0.2-0.1-0.4,0.1-0.5c1.9-0.5,8.2-2.2,14.6,0.4"/>
		<path class="st18" d="M206.1,299.2c-1.9,5.5-3.9,7.7-8.7,8.9c-0.2,0.1-0.4,0-0.4-0.2c0.2-2.3,1.5-12.3,10-20.2
			c0,0-11.7,1.6-19.5-6.3c-0.2-0.2-0.2-0.4,0-0.5c1.8-0.8,6.4-4,12.4-3.3"/>
		<path class="st18" d="M198.4,301.5c0,0-4.6,6.5-9.4,8.5c-0.2,0.1-0.3,0-0.4-0.3c-2-7.1,3.2-13.7,7.9-17.7c0,0-13.8,2.5-20.9-2.2
			c-0.2-0.1-0.2-0.4-0.1-0.5c1.5-0.9,8.3-6.1,15.6-5.2"/>
		<path class="st18" d="M263.6,273.7c0-4.5,2-6.9,5.5-9.1c2.7-1.8,5.2-1.7,6.1-1.7c0.2,0,0.3,0.2,0.2,0.4
			C274.6,265.2,270.3,273.6,263.6,273.7"/>
		<path class="st18" d="M272.6,268.1c2.8-1.9,6.2-1.3,7.5-1c0.3,0.1,0.5,0.4,0.3,0.7c-0.6,1-2.1,3.3-4.5,5.2"/>
		<path class="st18" d="M268.6,272c4.3-1.1,6.7,0.4,10,2.7c0.5,0.3,0.4,1.1-0.2,1.3c-2.7,1-9.1,3-13.6,0.5"/>
		<path class="st18" d="M268.6,280.8c-1.1-0.5-2.4-1.5-3.3-2.6"/>
		<path class="st18" d="M275.4,277l3.3,0.4c0.3,0,0.5,0.5,0.2,0.7c-0.8,0.7-2.1,1.7-3.3,2.1"/>
		<path class="st18" d="M267,266.1c0,0-0.2-2.5-1.2-3.6c-0.1-0.1-0.3-0.2-0.5-0.1c-0.6,0.3-1.9,1.2-2.6,2.2"/>
		<path class="st18" d="M260.5,271.1c-0.2-1.4,0.5-2.9,0.5-2.9"/>
		<path class="st18" d="M246.2,275.6c-5,3.3-10.5,2-12.6,1.3c-0.4-0.1-0.7-0.6-0.5-1.1c0.8-1.7,3-5.6,6.7-7.1c4.8-2,6.6-1.7,8.2,0.1
			"/>
		<path class="st18" d="M239.9,268.7c-3.9-3.4-4.2-9.4-4.2-11c0-0.2,0.2-0.4,0.4-0.3c1.3,0.2,5.9,1.2,8.8,3.3
			c3.4,2.5,2.7,7.6,2.7,7.6"/>
		<path class="st18" d="M245.1,260.9c1.2-4,6-6.7,7.6-7.6c0.3-0.1,0.6,0,0.7,0.3c0.5,1.6,1.8,6.7,0,9.9c-2.2,3.8-5.4,4-5.4,4"/>
		<path class="st18" d="M254,262.2c3.9-0.5,8.1,1.9,9.5,2.9c0.3,0.2,0.3,0.6,0.1,0.8c-1.5,1.4-6,5.6-8.7,5.3c-5.8-0.5-6-3.9-6-3.9"
			/>
		<path class="st18" d="M248.4,279.5c-1.2-1.1-1.9-2.9-2.4-4.9c-1-4.9,2.8-6.2,2.8-6.2"/>
		<path class="st18" d="M254.5,271.2c0.5,1,1.2,2.3,1.3,4.6"/>
		<path class="st18" d="M253.3,280.6c1-4.6,6.3-8.9,7.9-10.1c0.2-0.2,0.6-0.1,0.7,0.1c1.2,2,5.6,9.7,3.4,15.9
			c-2,5.6-7.4,6.4-7.4,6.4"/>
		<path class="st18" d="M265.9,282.3c5.1-3.9,12.8-1.9,15.1-1.2c0.3,0.1,0.5,0.5,0.3,0.8c-1.1,2.1-5.6,8.8-12,11.8
			c-7.1,3.3-9.6-1.3-9.6-1.3"/>
		<path class="st18" d="M273.3,291.4c5,2.1,8.3,6.5,9.5,8.3c0.3,0.5,0.2,1.2-0.2,1.6c-2.1,1.9-8.4,6.4-16.5,1.3
			c-8.4-5.3-5.8-8.7-5.8-8.7"/>
		<path class="st18" d="M267.8,304c-2.2,7.2-8.7,10.9-10.6,11.8c-0.3,0.2-0.7,0.1-0.9-0.2c-0.9-1.3-3.3-5.1-3-9.8
			c0.5-5.7,3.6-11.7,6.6-11.1"/>
		<path class="st18" d="M254,302.3c-2.3-0.4-2.9-0.7-2.9-0.7"/>
		<path class="st18" d="M254.9,289.7c2.6,1.7,2.6,2.5,3.3,5.3"/>
		<path class="st18" d="M226.9,295.1c-4.7,1.2-10.9-4.8-12.5-6.6c-0.3-0.3-0.2-0.7,0.1-0.9c1.7-1.4,7.6-5.9,13-5.1
			c6.5,0.9,10,10.2,10,10.2"/>
		<path class="st18" d="M241.9,277.4c0.5,1.9,0.7,4,0.1,6.3c-1.5,6.3-5.5,6.9-5.5,6.9"/>
		<path class="st18" d="M230.9,283.9c-3.6-7.5,0.8-13.5,2.5-15.5c0.4-0.4,1-0.5,1.5-0.2c0.6,0.4,1.5,1.1,2.5,2.1"/>
		<path class="st18" d="M242.5,280.7c6.3-3.5,14.3,1.3,16.8,3c0.4,0.3,0.5,0.9,0.2,1.3c-1.7,2.2-8.1,8.8-13.5,8.3
			c-6.6-0.6-7.9-3.5-7.9-3.5"/>
		<path class="st18" d="M248.6,293c6.1,6.2-0.4,18.2-2.1,21.1c-0.2,0.3-0.7,0.4-1,0.2c-2-1.6-8.1-6.9-8.8-12.1
			c-0.7-6.2,2.9-10.7,2.9-10.7"/>
		<path class="st18" d="M237,303.4c-4.8,4.3-11.8,4.9-14.2,4.9c-0.5,0-0.9-0.4-0.8-0.9c0.2-2.6,1.2-9.9,6.1-13.2
			c6-4.1,10.5-0.9,10.5-0.9"/>
		<g>
			<g>
				<path d="M234.3,292.3c0,0-0.2-0.7-0.8-1.8c-0.3-0.5-0.6-1.1-1.1-1.7c-0.4-0.6-0.9-1.2-1.5-1.8c-0.6-0.5-1.2-1.1-1.8-1.4
					c-0.3-0.2-0.6-0.4-0.9-0.5c-0.3-0.2-0.6-0.3-0.9-0.4c-0.3-0.1-0.5-0.2-0.8-0.3c-0.2-0.1-0.4-0.1-0.6-0.1
					c-0.3-0.1-0.5-0.1-0.5-0.1s0.2,0,0.5,0.1c0.2,0,0.4,0.1,0.6,0.1c0.2,0.1,0.5,0.1,0.8,0.2c0.3,0.1,0.6,0.2,0.9,0.3
					c0.3,0.1,0.7,0.3,1,0.5c0.7,0.3,1.4,0.8,2,1.3c0.6,0.5,1.2,1.1,1.7,1.7c0.5,0.6,0.9,1.2,1.3,1.7c0.7,1,1,1.8,1,1.8L234.3,292.3z
					"/>
			</g>
			<g>
				<path d="M235.4,289.1c0,0,0.5-0.5,1.1-1.3c0.6-0.8,1.5-2,2.1-3.3c0.3-0.6,0.6-1.3,0.8-1.9c0.1-0.3,0.2-0.6,0.2-0.9
					c0.1-0.3,0.1-0.6,0.2-0.8c0.1-0.5,0.1-1,0.1-1.3c0-0.3,0-0.5,0-0.5s0,0.2,0.1,0.5c0.1,0.3,0.1,0.8,0.1,1.3
					c0,0.3-0.1,0.6-0.1,0.9c0,0.3-0.1,0.6-0.2,1c-0.1,0.7-0.4,1.4-0.6,2.1c-0.5,1.4-1.3,2.6-1.9,3.6c-0.6,0.9-1.1,1.5-1.1,1.5
					L235.4,289.1z"/>
			</g>
			<g>
				<path d="M239.4,288.7c0,0,0.6,0.4,1.5,0.9c0.9,0.5,2.2,1.1,3.6,1.5c0.3,0.1,0.7,0.2,1,0.3c0.3,0.1,0.7,0.1,1,0.2
					c0.3,0,0.7,0,1,0c0.3,0,0.6,0,0.9-0.1c0.3-0.1,0.5-0.1,0.7-0.2c0.2,0,0.4-0.1,0.5-0.2c0.3-0.1,0.5-0.2,0.5-0.2s-0.2,0.1-0.4,0.2
					c-0.1,0.1-0.3,0.2-0.5,0.2c-0.2,0.1-0.5,0.2-0.7,0.2c-0.3,0-0.6,0.1-0.9,0.1c-0.3,0-0.7,0-1,0c-0.3,0-0.7,0-1.1-0.1
					c-0.4-0.1-0.7-0.1-1.1-0.2c-2.9-0.6-5.5-2.1-5.5-2.1L239.4,288.7z"/>
			</g>
			<g>
				<path d="M241.8,293.1c0,0-0.6,0.6-1.2,1.8c-0.3,0.6-0.6,1.3-0.9,2.1c-0.1,0.4-0.3,0.8-0.3,1.2c-0.1,0.4-0.2,0.9-0.2,1.3
					c-0.1,0.4-0.1,0.9-0.1,1.3c0,0.4,0,0.9,0,1.3c0,0.4,0.1,0.8,0.2,1.2c0,0.4,0.1,0.7,0.2,1.1c0.1,0.3,0.1,0.6,0.2,0.9
					c0.1,0.3,0.2,0.5,0.2,0.7c0.1,0.4,0.2,0.6,0.2,0.6s-0.1-0.2-0.3-0.6c-0.1-0.2-0.2-0.4-0.3-0.7c-0.1-0.2-0.2-0.6-0.3-0.9
					c-0.1-0.3-0.2-0.7-0.3-1.1c-0.1-0.4-0.2-0.8-0.2-1.2c0-0.4-0.1-0.9-0.1-1.3c0-0.5,0-0.9,0-1.4c0-0.5,0.1-0.9,0.2-1.4
					c0.1-0.5,0.2-0.9,0.3-1.3c0.2-0.8,0.5-1.6,0.8-2.2c0.3-0.6,0.6-1.1,0.8-1.5c0.2-0.4,0.4-0.6,0.4-0.6L241.8,293.1z"/>
			</g>
			<g>
				<path d="M236.8,295.6c0,0-0.1-0.1-0.4-0.2c-0.3-0.1-0.7-0.3-1.3-0.4c-0.3-0.1-0.6-0.1-0.9-0.1c-0.3,0-0.6-0.1-1,0
					c-0.3,0-0.7,0-1.1,0.1c-0.4,0-0.7,0.2-1.1,0.3c-0.3,0.1-0.7,0.3-1,0.4c-0.3,0.2-0.6,0.4-0.9,0.6c-0.3,0.2-0.6,0.4-0.8,0.6
					c-0.2,0.2-0.5,0.5-0.7,0.7c-0.4,0.4-0.7,0.8-0.9,1.1c-0.2,0.3-0.3,0.4-0.3,0.4s0.1-0.2,0.3-0.4c0.2-0.3,0.4-0.7,0.8-1.1
					c0.2-0.2,0.4-0.5,0.6-0.7c0.2-0.2,0.5-0.5,0.8-0.7c0.3-0.2,0.6-0.4,0.9-0.7c0.3-0.2,0.7-0.4,1-0.6c0.4-0.1,0.7-0.3,1.1-0.4
					c0.4-0.1,0.8-0.2,1.1-0.2c0.4-0.1,0.7,0,1.1-0.1c0.3,0,0.7,0,1,0.1c0.6,0.1,1.1,0.2,1.4,0.3c0.3,0.1,0.6,0.2,0.5,0.2
					L236.8,295.6z"/>
			</g>
			<g>
				<path d="M246.2,270.9c0,0,0-0.1-0.2-0.2c-0.1-0.1-0.3-0.3-0.6-0.5c-0.3-0.2-0.6-0.4-1-0.5c-0.4-0.1-0.8-0.2-1.3-0.2
					c-0.2,0-0.5,0-0.7,0c-0.2,0-0.4,0.1-0.7,0.1c-0.4,0.1-0.8,0.2-1.1,0.4c-0.3,0.1-0.6,0.3-0.8,0.3c-0.2,0.1-0.3,0.1-0.3,0.1
					s0.1-0.1,0.3-0.2c0.2-0.1,0.4-0.3,0.7-0.5c0.3-0.2,0.7-0.4,1.1-0.5c0.2-0.1,0.4-0.1,0.7-0.2c0.2-0.1,0.5-0.1,0.7-0.1
					c0.5-0.1,1-0.1,1.5,0c0.5,0.1,0.9,0.2,1.3,0.4c0.4,0.2,0.6,0.4,0.8,0.5c0.2,0.1,0.3,0.3,0.3,0.3L246.2,270.9z"/>
			</g>
			<g>
				<path d="M244.7,267.1c0,0,0-0.1,0.1-0.3c0.1-0.2,0.1-0.5,0.2-0.9c0-0.4,0-0.9-0.1-1.3c-0.1-0.5-0.3-1-0.6-1.5
					c-0.1-0.2-0.3-0.5-0.4-0.7c-0.2-0.2-0.3-0.4-0.5-0.6c-0.3-0.4-0.7-0.7-1-1c-0.3-0.3-0.6-0.5-0.8-0.6c-0.2-0.1-0.3-0.2-0.3-0.2
					s0.1,0.1,0.3,0.2c0.2,0.1,0.5,0.3,0.9,0.5c0.4,0.2,0.8,0.5,1.2,0.9c0.2,0.2,0.4,0.4,0.6,0.6c0.2,0.2,0.4,0.5,0.5,0.7
					c0.3,0.5,0.6,1,0.8,1.6c0.2,0.5,0.3,1.1,0.3,1.5c0,0.5,0,0.8-0.1,1.1c0,0.3-0.1,0.5-0.1,0.4L244.7,267.1z"/>
			</g>
			<g>
				<path d="M247.4,265.4c0,0,0.5-0.1,1.3-0.4c0.8-0.3,1.7-0.8,2.5-1.6c0.4-0.4,0.7-0.8,1-1.3c0.1-0.2,0.2-0.5,0.3-0.7
					c0.1-0.2,0.2-0.4,0.2-0.6c0.1-0.2,0.1-0.4,0.1-0.6c0-0.2,0-0.3,0.1-0.4c0-0.2,0.1-0.4,0.1-0.4s0,0.1,0,0.4c0,0.1,0,0.3,0,0.5
					c0,0.2-0.1,0.4-0.1,0.6c0,0.2-0.1,0.4-0.2,0.7c-0.1,0.2-0.1,0.5-0.3,0.7c-0.2,0.5-0.5,1-0.9,1.5c-0.7,0.9-1.7,1.6-2.5,2.1
					c-0.8,0.4-1.4,0.6-1.4,0.6L247.4,265.4z"/>
			</g>
			<g>
				<path d="M250.6,266.4c0,0,0.3,0.4,0.8,0.9c0.5,0.5,1.3,1.1,2.1,1.6c0.2,0.1,0.4,0.2,0.6,0.3c0.2,0.1,0.4,0.2,0.6,0.2
					c0.2,0.1,0.4,0.1,0.6,0.1c0.2,0,0.4,0,0.6,0c0.2,0,0.3,0,0.5-0.1c0.2,0,0.3-0.1,0.4-0.1c0.2-0.1,0.3-0.1,0.3-0.1
					s-0.1,0.1-0.3,0.1c-0.1,0-0.2,0.1-0.4,0.2c-0.1,0-0.3,0.1-0.5,0.1c-0.2,0-0.4,0-0.6,0c-0.2,0-0.4,0-0.7-0.1
					c-0.2-0.1-0.5-0.1-0.7-0.2c-0.2-0.1-0.5-0.1-0.7-0.2c-1.9-0.8-3.4-2.2-3.4-2.2L250.6,266.4z"/>
			</g>
			<g>
				<path d="M250.5,269.9c0,0-0.1,0-0.3,0.1c-0.2,0.1-0.5,0.2-0.7,0.4c-0.1,0.1-0.3,0.2-0.4,0.4c-0.2,0.1-0.3,0.3-0.4,0.5
					c-0.2,0.4-0.5,0.8-0.6,1.3c-0.1,0.2-0.1,0.5-0.1,0.7c0,0.2,0,0.5,0,0.7c0,0.2,0,0.5,0,0.7c0,0.2,0.1,0.4,0.1,0.6
					c0.1,0.4,0.1,0.7,0.2,0.9c0,0.2,0.1,0.4,0.1,0.4s0-0.1-0.1-0.3c-0.1-0.2-0.2-0.5-0.3-0.9c0-0.2-0.1-0.4-0.2-0.6
					c-0.1-0.2-0.1-0.5-0.1-0.7c0-0.2-0.1-0.5-0.1-0.8c0-0.3,0-0.5,0-0.8c0.1-0.6,0.2-1.1,0.5-1.6c0.1-0.2,0.3-0.5,0.4-0.6
					c0.1-0.2,0.3-0.4,0.5-0.5c0.3-0.3,0.7-0.5,0.9-0.6c0.2-0.1,0.4-0.2,0.4-0.2L250.5,269.9z"/>
			</g>
			<g>
				<path d="M256.4,296.2c0,0,0-0.4-0.2-1c-0.2-0.6-0.5-1.3-1-2c-0.3-0.3-0.5-0.6-0.8-0.9c-0.3-0.2-0.6-0.4-0.9-0.6
					c-0.6-0.3-1-0.4-1-0.4c0,0,0.4,0,1,0.2c0.3,0.1,0.7,0.3,1,0.5c0.4,0.2,0.7,0.5,1,0.8c0.7,0.6,1.1,1.4,1.4,2
					c0.3,0.6,0.4,1.1,0.4,1.1L256.4,296.2z"/>
			</g>
			<g>
				<path d="M260.3,297.4c0,0-0.1,0.1-0.3,0.2c-0.2,0.2-0.5,0.5-0.8,0.8c-0.6,0.7-1.3,1.8-1.8,3.1c-0.3,0.6-0.5,1.2-0.6,1.8
					c-0.2,0.6-0.3,1.2-0.4,1.6c-0.1,0.5-0.2,0.9-0.2,1.2c-0.1,0.3-0.1,0.4-0.1,0.4s0-0.2,0-0.5c0-0.3,0-0.7,0.1-1.2
					c0.1-0.5,0.1-1.1,0.3-1.7c0.1-0.6,0.3-1.3,0.5-1.9c0.4-1.3,1-2.5,1.6-3.4c0.3-0.4,0.6-0.8,0.8-1c0.2-0.2,0.4-0.4,0.4-0.4
					L260.3,297.4z"/>
			</g>
			<g>
				<path d="M263.1,294.7c0,0,0,0.2,0.2,0.4c0.1,0.3,0.3,0.7,0.6,1.2c0.3,0.5,0.6,1,1,1.6c0.4,0.6,0.9,1.1,1.4,1.6
					c0.5,0.5,1.1,1,1.6,1.5c0.5,0.4,1.1,0.8,1.5,1.1c0.5,0.3,0.9,0.6,1.1,0.7c0.3,0.2,0.4,0.3,0.4,0.3s-0.2-0.1-0.5-0.2
					c-0.3-0.2-0.7-0.3-1.2-0.6c-0.5-0.3-1.1-0.6-1.6-1c-0.6-0.4-1.2-0.9-1.8-1.4c-0.6-0.5-1.1-1-1.6-1.6c-0.5-0.5-0.9-1.1-1.2-1.5
					c-0.3-0.5-0.6-0.9-0.7-1.2c-0.2-0.3-0.3-0.5-0.2-0.5L263.1,294.7z"/>
			</g>
			<g>
				<path d="M262.1,291.1c0,0,0.1,0.1,0.3,0.2c0.2,0.1,0.6,0.2,1,0.3c0.4,0.1,0.9,0.2,1.5,0.2c0.5,0.1,1.1,0,1.7,0
					c0.6-0.1,1.2-0.2,1.7-0.4c0.3-0.1,0.5-0.2,0.8-0.3c0.2-0.1,0.5-0.2,0.7-0.3c0.4-0.2,0.7-0.4,1-0.5c0.2-0.1,0.4-0.2,0.4-0.2
					s-0.1,0.1-0.3,0.3c-0.2,0.2-0.5,0.4-0.9,0.6c-0.2,0.1-0.4,0.3-0.6,0.4c-0.2,0.1-0.5,0.2-0.8,0.4c-0.5,0.2-1.1,0.4-1.7,0.6
					c-0.6,0.1-1.2,0.2-1.8,0.2c-0.6,0-1.2,0-1.6-0.1c-0.5-0.1-0.9-0.2-1.1-0.3c-0.3-0.1-0.5-0.2-0.4-0.2L262.1,291.1z"/>
			</g>
			<g>
				<path d="M256.8,290.8c0,0,0.7-0.2,1.7-0.7c0.5-0.2,1.1-0.5,1.6-0.9c0.6-0.4,1.1-0.8,1.6-1.4c0.2-0.3,0.5-0.5,0.7-0.8
					c0.2-0.3,0.4-0.6,0.6-0.9c0.2-0.3,0.3-0.6,0.4-0.9c0.1-0.3,0.2-0.6,0.3-0.8c0.1-0.3,0.1-0.5,0.2-0.7c0-0.2,0.1-0.4,0.1-0.6
					c0-0.3,0.1-0.5,0.1-0.5s0,0.2,0,0.5c0,0.2,0,0.4,0,0.6c0,0.2-0.1,0.5-0.1,0.8c0,0.3-0.1,0.6-0.2,0.9c-0.1,0.3-0.2,0.6-0.4,1
					c-0.1,0.3-0.3,0.7-0.5,1c-0.2,0.3-0.4,0.6-0.7,0.9c-0.5,0.6-1,1.1-1.6,1.6c-0.6,0.5-1.1,0.8-1.6,1.1c-1,0.6-1.8,0.9-1.8,0.9
					L256.8,290.8z"/>
			</g>
		</g>
		<path class="st18" d="M311.9,287c0,0,10.5-0.5,14.7,4.6c0.3,0.3,0.1,0.8-0.3,1c-2.2,0.7-8.5,2.8-15.5,0.9"/>
	</g>
	<g>
		<path d="M117.5,385L117.5,385c0.4-0.6,1.1-1.1,1.9-1.1c0.9,0,1.7,0.5,2.2,1.3c0.5-0.9,1.4-1.3,2.3-1.3c2,0,2.5,1.6,2.5,3.3v4.7
			h-1.3v-4.5c0-1-0.1-2.3-1.4-2.3c-1.5,0-1.7,1.5-1.7,2.6v4.1h-1.3v-4.4c0-1-0.1-2.4-1.4-2.4c-1.6,0-1.7,1.6-1.7,2.7v4h-1.3v-7.8
			h1.3V385z"/>
		<path d="M131.5,388c0-2.3,1.8-4.1,4.1-4.1c2.3,0,4.1,1.8,4.1,4.1s-1.8,4.1-4.1,4.1C133.4,392.1,131.5,390.3,131.5,388z M132.9,388
			c0,1.6,1.1,2.9,2.8,2.9c1.6,0,2.8-1.3,2.8-2.9c0-1.6-1.1-2.9-2.8-2.9C134,385.1,132.9,386.4,132.9,388z"/>
		<path d="M146.1,385L146.1,385c0.5-0.6,0.9-1.1,1.8-1.1c0.4,0,0.8,0.1,1.2,0.4l-0.6,1.2c-0.3-0.2-0.4-0.3-0.8-0.3
			c-1.5,0-1.5,1.9-1.5,2.9v3.9h-1.3v-7.8h1.3V385z"/>
		<path d="M154.4,388.3c0,1.4,1,2.6,2.6,2.6c1.1,0,1.9-0.7,2.4-1.6l1.1,0.6c-0.7,1.4-2,2.2-3.6,2.2c-2.3,0-3.8-1.8-3.8-4
			c0-2.3,1.3-4.2,3.8-4.2c2.5,0,3.8,2.1,3.7,4.4H154.4z M159.1,387.2c-0.2-1.1-1.1-2-2.3-2c-1.1,0-2.2,0.9-2.4,2H159.1z"/>
		<path d="M179.8,390.8L179.8,390.8c-0.7,0.8-1.7,1.3-2.7,1.3c-2.3,0-3.7-1.9-3.7-4.1c0-2.2,1.4-4.1,3.7-4.1c1,0,2,0.5,2.7,1.3h0v-7
			h1.3v13.7h-1.3V390.8z M174.7,387.9c0,1.5,0.9,3,2.5,3c1.7,0,2.6-1.4,2.6-2.9c0-1.6-1-2.8-2.6-2.8
			C175.7,385.1,174.7,386.5,174.7,387.9z"/>
		<path d="M187.6,388.3c0,1.4,1,2.6,2.6,2.6c1.1,0,1.9-0.7,2.4-1.6l1.1,0.6c-0.7,1.4-2,2.2-3.6,2.2c-2.3,0-3.8-1.8-3.8-4
			c0-2.3,1.3-4.2,3.8-4.2c2.5,0,3.8,2.1,3.7,4.4H187.6z M192.3,387.2c-0.2-1.1-1.1-2-2.3-2c-1.1,0-2.2,0.9-2.4,2H192.3z"/>
		<path d="M200.2,391.9h-1.3v-6.6h-0.8v-1.2h0.8v-2.8h1.3v2.8h1.4v1.2h-1.4V391.9z"/>
		<path d="M213.2,391.9h-1.3v-1.1h0c-0.7,0.9-1.6,1.3-2.7,1.3c-2.3,0-3.7-1.9-3.7-4.1c0-2.2,1.4-4.1,3.7-4.1c1.1,0,2,0.5,2.7,1.3h0
			v-1.1h1.3V391.9z M206.8,387.9c0,1.5,0.9,3,2.5,3c1.7,0,2.6-1.4,2.6-2.9c0-1.6-1-2.8-2.6-2.8C207.8,385.1,206.8,386.5,206.8,387.9
			z"/>
		<path d="M220.8,381.2c0,0.5-0.4,0.9-0.9,0.9s-0.9-0.4-0.9-0.9c0-0.5,0.4-0.9,0.9-0.9S220.8,380.7,220.8,381.2z M220.6,391.9h-1.3
			v-7.8h1.3V391.9z"/>
		<path d="M227.9,391.9h-1.3v-13.7h1.3V391.9z"/>
		<path d="M236.9,385.9c-0.2-0.4-0.6-0.8-1.1-0.8c-0.5,0-1,0.4-1,0.9c0,0.7,0.9,1,1.8,1.4s1.8,0.9,1.8,2.2c0,1.5-1.2,2.5-2.6,2.5
			c-1.3,0-2.3-0.7-2.7-2l1.2-0.5c0.3,0.7,0.7,1.2,1.6,1.2c0.7,0,1.3-0.5,1.3-1.2c0-1.7-3.5-1.1-3.5-3.6c0-1.3,1.1-2.2,2.3-2.2
			c0.9,0,1.7,0.6,2.1,1.4L236.9,385.9z"/>
		<path d="M257.8,386.4L257.8,386.4c-0.6-0.8-1.4-1.3-2.5-1.3c-1.6,0-2.7,1.3-2.7,2.9c0,1.5,1.1,2.9,2.7,2.9c1.1,0,1.9-0.5,2.5-1.3
			h0v1.8c-0.8,0.5-1.5,0.8-2.5,0.8c-2.4,0-4.1-1.8-4.1-4.1c0-2.3,1.9-4.1,4.2-4.1c0.8,0,1.7,0.3,2.4,0.8V386.4z"/>
		<path d="M262.5,388c0-2.3,1.8-4.1,4.1-4.1s4.1,1.8,4.1,4.1s-1.8,4.1-4.1,4.1S262.5,390.3,262.5,388z M263.9,388
			c0,1.6,1.1,2.9,2.8,2.9c1.6,0,2.8-1.3,2.8-2.9c0-1.6-1.1-2.9-2.8-2.9C265,385.1,263.9,386.4,263.9,388z"/>
		<path d="M277.2,385L277.2,385c0.4-0.6,1.1-1.1,1.9-1.1c0.9,0,1.7,0.5,2.2,1.3c0.5-0.9,1.4-1.3,2.3-1.3c2,0,2.5,1.6,2.5,3.3v4.7
			h-1.3v-4.5c0-1-0.1-2.3-1.4-2.3c-1.5,0-1.7,1.5-1.7,2.6v4.1h-1.3v-4.4c0-1-0.1-2.4-1.4-2.4c-1.6,0-1.7,1.6-1.7,2.7v4h-1.3v-7.8
			h1.3V385z"/>
		<path d="M293.7,381.2c0,0.5-0.4,0.9-0.9,0.9c-0.5,0-0.9-0.4-0.9-0.9c0-0.5,0.4-0.9,0.9-0.9C293.3,380.2,293.7,380.7,293.7,381.2z
			 M293.5,391.9h-1.3v-7.8h1.3V391.9z"/>
		<path d="M300.9,385.1L300.9,385.1c0.6-0.7,1.3-1.2,2.3-1.2c2.2,0,2.6,1.6,2.6,3.4v4.6h-1.3v-4.4c0-1.3-0.1-2.4-1.6-2.4
			c-1.8,0-1.9,1.7-1.9,3.1v3.7h-1.3v-7.8h1.3V385.1z"/>
		<path d="M318.6,391.5c0,1.2,0,2.3-0.8,3.3c-0.7,0.9-1.9,1.4-3,1.4c-2.2,0-3.8-1.4-3.8-3.6h1.3c0,1.4,1.1,2.4,2.5,2.4
			c2.1,0,2.5-1.5,2.5-3.3v-0.9h0c-0.6,0.8-1.7,1.3-2.7,1.3c-2.3,0-3.7-1.9-3.7-4.1c0-2.2,1.5-4.1,3.8-4.1c1.1,0,2,0.5,2.6,1.3h0
			v-1.1h1.3V391.5z M312.2,387.9c0,1.5,0.9,3,2.6,3c1.7,0,2.6-1.4,2.6-2.9c0-1.6-1-2.8-2.6-2.8C313.2,385.1,312.2,386.5,312.2,387.9
			z"/>
		<path d="M336.1,385.9c-0.2-0.4-0.6-0.8-1.1-0.8c-0.5,0-1,0.4-1,0.9c0,0.7,0.9,1,1.8,1.4c0.9,0.4,1.8,0.9,1.8,2.2
			c0,1.5-1.2,2.5-2.6,2.5c-1.3,0-2.3-0.7-2.7-2l1.2-0.5c0.3,0.7,0.7,1.2,1.6,1.2c0.7,0,1.3-0.5,1.3-1.2c0-1.7-3.5-1.1-3.5-3.6
			c0-1.3,1.1-2.2,2.3-2.2c0.9,0,1.7,0.6,2.1,1.4L336.1,385.9z"/>
		<path d="M342.2,388c0-2.3,1.8-4.1,4.1-4.1s4.1,1.8,4.1,4.1s-1.8,4.1-4.1,4.1S342.2,390.3,342.2,388z M343.5,388
			c0,1.6,1.1,2.9,2.8,2.9s2.8-1.3,2.8-2.9c0-1.6-1.1-2.9-2.8-2.9S343.5,386.4,343.5,388z"/>
		<path d="M354.8,388c0-2.3,1.8-4.1,4.1-4.1c2.3,0,4.1,1.8,4.1,4.1s-1.8,4.1-4.1,4.1C356.6,392.1,354.8,390.3,354.8,388z M356.1,388
			c0,1.6,1.1,2.9,2.8,2.9c1.6,0,2.8-1.3,2.8-2.9c0-1.6-1.1-2.9-2.8-2.9C357.2,385.1,356.1,386.4,356.1,388z"/>
		<path d="M369.4,385.1L369.4,385.1c0.6-0.7,1.3-1.2,2.3-1.2c2.2,0,2.6,1.6,2.6,3.4v4.6H373v-4.4c0-1.3-0.1-2.4-1.6-2.4
			c-1.8,0-1.9,1.7-1.9,3.1v3.7h-1.3v-7.8h1.3V385.1z"/>
		<path d="M382.6,391.2c0,0.5-0.4,0.9-0.9,0.9s-0.9-0.4-0.9-0.9c0-0.5,0.4-0.9,0.9-0.9S382.6,390.7,382.6,391.2z M381,379.4h1.4v10
			H381V379.4z"/>
	</g>
</g>
<g id="deliver">
</g>
</svg>
